<?xml version="1.0" standalone="no"?><!DOCTYPE svg PUBLIC "-//W3C//DTD SVG 1.1//EN"
        "http://www.w3.org/Graphics/SVG/1.1/DTD/svg11.dtd">
<svg t="1641104796937" class="icon" viewBox="0 0 1024 1024" version="1.1" xmlns="http://www.w3.org/2000/svg" p-id="1407"
     xmlns:xlink="http://www.w3.org/1999/xlink" width="200" height="200">
    <defs>
        <style type="text/css"></style>
    </defs>
    <path d="M806.4 849.066667H217.6c-72.533333 0-132.266667-59.733333-132.266667-132.266667V307.2c0-72.533333 59.733333-132.266667 132.266667-132.266667h588.8c72.533333 0 132.266667 59.733333 132.266667 132.266667v409.6c0 72.533333-59.733333 132.266667-132.266667 132.266667zM217.6 243.2c-34.133333 0-64 29.866667-64 64v409.6c0 34.133333 29.866667 64 64 64h588.8c34.133333 0 64-29.866667 64-64V307.2c0-34.133333-29.866667-64-64-64H217.6z"
          p-id="1408"></path>
    <path d="M930.133333 635.733333h-268.8c-68.266667 0-123.733333-55.466667-123.733333-123.733333s55.466667-123.733333 123.733333-123.733333h268.8v247.466666z m-268.8-183.466666c-34.133333 0-59.733333 25.6-59.733333 59.733333s25.6 59.733333 59.733333 59.733333h204.8v-119.466666h-204.8z"
          p-id="1409"></path>
    <path d="M669.866667 512m-34.133334 0a34.133333 34.133333 0 1 0 68.266667 0 34.133333 34.133333 0 1 0-68.266667 0Z"
          p-id="1410"></path>
</svg>